solid ASCII
  facet normal 0.000000e+00 7.071068e-01 7.071068e-01
    outer loop
      vertex   9.144000e+01 1.270000e+02 3.556000e+01
      vertex   2.177422e-15 1.270000e+02 3.556000e+01
      vertex   7.620000e+01 1.117600e+02 5.080000e+01
    endloop
  endfacet
  facet normal 0.000000e+00 7.071068e-01 7.071068e-01
    outer loop
      vertex   7.620000e+01 1.117600e+02 5.080000e+01
      vertex   2.177422e-15 1.270000e+02 3.556000e+01
      vertex   1.524000e+01 1.117600e+02 5.080000e+01
    endloop
  endfacet
  facet normal 7.071068e-01 0.000000e+00 7.071068e-01
    outer loop
      vertex   9.144000e+01 1.270000e+02 3.556000e+01
      vertex   7.620000e+01 1.117600e+02 5.080000e+01
      vertex   9.144000e+01 0.000000e+00 3.556000e+01
    endloop
  endfacet
  facet normal 7.071068e-01 0.000000e+00 7.071068e-01
    outer loop
      vertex   9.144000e+01 0.000000e+00 3.556000e+01
      vertex   7.620000e+01 1.117600e+02 5.080000e+01
      vertex   7.620000e+01 1.524000e+01 5.080000e+01
    endloop
  endfacet
  facet normal 0.000000e+00 0.000000e+00 1.000000e+00
    outer loop
      vertex   7.620000e+01 1.117600e+02 5.080000e+01
      vertex   1.524000e+01 1.117600e+02 5.080000e+01
      vertex   7.620000e+01 1.524000e+01 5.080000e+01
    endloop
  endfacet
  facet normal 0.000000e+00 0.000000e+00 1.000000e+00
    outer loop
      vertex   7.620000e+01 1.524000e+01 5.080000e+01
      vertex   1.524000e+01 1.117600e+02 5.080000e+01
      vertex   1.524000e+01 1.524000e+01 5.080000e+01
    endloop
  endfacet
  facet normal 0.000000e+00 -7.071068e-01 7.071068e-01
    outer loop
      vertex   7.620000e+01 1.524000e+01 5.080000e+01
      vertex   1.524000e+01 1.524000e+01 5.080000e+01
      vertex   9.144000e+01 0.000000e+00 3.556000e+01
    endloop
  endfacet
  facet normal 0.000000e+00 -7.071068e-01 7.071068e-01
    outer loop
      vertex   9.144000e+01 0.000000e+00 3.556000e+01
      vertex   1.524000e+01 1.524000e+01 5.080000e+01
      vertex   2.177422e-15 0.000000e+00 3.556000e+01
    endloop
  endfacet
  facet normal 0.000000e+00 0.000000e+00 -1.000000e+00
    outer loop
      vertex   9.144000e+01 0.000000e+00 0.000000e+00
      vertex   0.000000e+00 0.000000e+00 0.000000e+00
      vertex   9.144000e+01 1.270000e+02 0.000000e+00
    endloop
  endfacet
  facet normal -0.000000e+00 0.000000e+00 -1.000000e+00
    outer loop
      vertex   9.144000e+01 1.270000e+02 0.000000e+00
      vertex   0.000000e+00 0.000000e+00 0.000000e+00
      vertex   0.000000e+00 1.270000e+02 0.000000e+00
    endloop
  endfacet
  facet normal 1.000000e+00 -0.000000e+00 3.996303e-16
    outer loop
      vertex   9.144000e+01 0.000000e+00 3.556000e+01
      vertex   9.144000e+01 0.000000e+00 0.000000e+00
      vertex   9.144000e+01 1.270000e+02 3.556000e+01
    endloop
  endfacet
  facet normal 1.000000e+00 0.000000e+00 3.996303e-16
    outer loop
      vertex   9.144000e+01 1.270000e+02 3.556000e+01
      vertex   9.144000e+01 0.000000e+00 0.000000e+00
      vertex   9.144000e+01 1.270000e+02 0.000000e+00
    endloop
  endfacet
  facet normal -7.071068e-01 0.000000e+00 7.071068e-01
    outer loop
      vertex   2.177422e-15 1.270000e+02 3.556000e+01
      vertex   2.177422e-15 0.000000e+00 3.556000e+01
      vertex   1.524000e+01 1.117600e+02 5.080000e+01
    endloop
  endfacet
  facet normal -7.071068e-01 0.000000e+00 7.071068e-01
    outer loop
      vertex   1.524000e+01 1.117600e+02 5.080000e+01
      vertex   2.177422e-15 0.000000e+00 3.556000e+01
      vertex   1.524000e+01 1.524000e+01 5.080000e+01
    endloop
  endfacet
  facet normal -1.000000e+00 0.000000e+00 6.123234e-17
    outer loop
      vertex   0.000000e+00 0.000000e+00 0.000000e+00
      vertex   2.177422e-15 0.000000e+00 3.556000e+01
      vertex   0.000000e+00 1.270000e+02 0.000000e+00
    endloop
  endfacet
  facet normal -1.000000e+00 0.000000e+00 6.123234e-17
    outer loop
      vertex   0.000000e+00 1.270000e+02 0.000000e+00
      vertex   2.177422e-15 0.000000e+00 3.556000e+01
      vertex   2.177422e-15 1.270000e+02 3.556000e+01
    endloop
  endfacet
  facet normal 0.000000e+00 1.000000e+00 0.000000e+00
    outer loop
      vertex   9.144000e+01 1.270000e+02 3.556000e+01
      vertex   9.144000e+01 1.270000e+02 0.000000e+00
      vertex   2.177422e-15 1.270000e+02 3.556000e+01
    endloop
  endfacet
  facet normal 0.000000e+00 1.000000e+00 0.000000e+00
    outer loop
      vertex   2.177422e-15 1.270000e+02 3.556000e+01
      vertex   9.144000e+01 1.270000e+02 0.000000e+00
      vertex   0.000000e+00 1.270000e+02 0.000000e+00
    endloop
  endfacet
  facet normal -0.000000e+00 -1.000000e+00 -0.000000e+00
    outer loop
      vertex   9.144000e+01 0.000000e+00 3.556000e+01
      vertex   2.177422e-15 0.000000e+00 3.556000e+01
      vertex   9.144000e+01 0.000000e+00 0.000000e+00
    endloop
  endfacet
  facet normal 0.000000e+00 -1.000000e+00 0.000000e+00
    outer loop
      vertex   9.144000e+01 0.000000e+00 0.000000e+00
      vertex   2.177422e-15 0.000000e+00 3.556000e+01
      vertex   0.000000e+00 0.000000e+00 0.000000e+00
    endloop
  endfacet
endsolid
